<svg width="79" height="61" viewBox="0 0 79 61" fill="none" xmlns="http://www.w3.org/2000/svg">
<path d="M77.5754 18.388L40.5442 1.10674C40.2172 0.954104 39.8608 0.875 39.4999 0.875C39.1391 0.875 38.7826 0.954104 38.4556 1.10674L1.42439 18.388C0.998906 18.5868 0.638945 18.9028 0.386755 19.299C0.134565 19.6952 0.000610352 20.155 0.000610352 20.6247C0.000610352 21.0943 0.134565 21.5542 0.386755 21.9504C0.638945 22.3466 0.998906 22.6626 1.42439 22.8614L14.8124 29.1098V47.7809C14.8124 54.8193 25.428 60.1247 39.4999 60.1247C53.5718 60.1247 64.1874 54.8193 64.1874 47.7809V29.1098L69.1249 26.804V40.3747C69.1249 41.0294 69.385 41.6574 69.848 42.1203C70.311 42.5833 70.9389 42.8434 71.5937 42.8434C72.2484 42.8434 72.8764 42.5833 73.3393 42.1203C73.8023 41.6574 74.0624 41.0294 74.0624 40.3747V24.5006L77.5754 22.8614C78.0009 22.6626 78.3609 22.3466 78.6131 21.9504C78.8653 21.5542 78.9992 21.0943 78.9992 20.6247C78.9992 20.155 78.8653 19.6952 78.6131 19.299C78.3609 18.9028 78.0009 18.5868 77.5754 18.388ZM59.2499 47.7809C59.2499 50.8027 51.5573 55.1872 39.4999 55.1872C27.4425 55.1872 19.7499 50.8027 19.7499 47.7809V31.4131L38.4556 40.1426C38.7826 40.2953 39.1391 40.3744 39.4999 40.3744C39.8608 40.3744 40.2172 40.2953 40.5442 40.1426L52.888 34.3806C53.471 34.0974 53.9193 33.5962 54.136 32.9853C54.3528 32.3744 54.3205 31.7028 54.0463 31.1155C53.7721 30.5281 53.2779 30.0722 52.6704 29.8461C52.0629 29.6201 51.3909 29.642 50.7994 29.9072L39.4999 35.1903L8.3048 20.6247L39.4999 6.05905L70.6926 20.6247L60.6744 25.3005C60.2098 25.5204 59.8264 25.8811 59.5787 26.3314C59.3309 26.7817 59.2314 27.2987 59.2944 27.8087C59.2758 27.882 59.2609 27.9562 59.2499 28.0309V47.7809Z" fill="#EBECF0"/>
</svg>
